# xmcd
#
# Track frame offsets:
# 150
# 16035
# 31953
# 45098
# 55928
# 68995
# 86467
# 96820
# 112720
# 121692
# 137755
# 151042
# 162410
# 173867
# 191032
# 204734
#
# Disc length: 2867 seconds
#
#
# Revision: 0
# Processed by: cddbd v1.5.2PL0 Copyright (c) Steve Scherf et al.
# Submitted via: FreeRIP 2.951 
#
DISCID=c00b3110
DTITLE=Salim e Zé Vitor - Vol. IV
DYEAR=1900
DGENRE=Country
TTITLE0=Hei
TTITLE1=Um Sonho
TTITLE2=Amor de Todo Jeito
TTITLE3=Morena dos Olhos Pretos
TTITLE4=Felicidade
TTITLE5=Resposta do Caminheiro
TTITLE6=Fonte Exclusiva
TTITLE7=Blusa de Seda
TTITLE8=Porão da Vida
TTITLE9=Noite de Natal
TTITLE10=Pagode do Pescador
TTITLE11=Escada Velha
TTITLE12=Quadro de Saudade
TTITLE13=Recanto Feliz
TTITLE14=Ultimo Adeus
TTITLE15=De Volta ao Passado
EXTD=
EXTT0=
EXTT1=
EXTT2=
EXTT3=
EXTT4=
EXTT5=
EXTT6=
EXTT7=
EXTT8=
EXTT9=
EXTT10=
EXTT11=
EXTT12=
EXTT13=
EXTT14=
EXTT15=
PLAYORDER=
